<?xml version="1.0" encoding="UTF-8"?>
<svg id="a" data-name="Layer 1" xmlns="http://www.w3.org/2000/svg" width="185.851mm" height="61.416mm" viewBox="0 0 526.821 174.093">
  <path d="M98.884,20.381c1.406,1.172,2.426.105,3.73.34.609.11,1.237.939,2.083,1.075,3.547.569,11.02-1.293,13.079,3.155,2.784,6.014-7.486,9.091-8.744,13.174-1.201,3.899.766,7.84.203,11.504-.269,1.753-1.67,5.231-2.359,7.077-9.432,25.278-26.753,24.891-49.154,31.902-10.517,3.292-20.534,8.234-30.98,11.747l-1.583,17.268c.612,10.707-1.489,21.343.3,31.796l3.501.588c.371.355-.916,9.397-1.286,10.186-.196.417-5.752,5.393-6.696,6.338-2,2.002-3.78,4.93-6.867,6.644-2.909,1.615-5.14.975-7.703-.932-3.804-2.831-3.762-6.426-5.148-10.442-.203-.588-1.282-.316-1.26-1.38.311-15.252,1.129-30.615,2.559-45.921,2.515-26.907,6.878-55.217,6.943-82.28.004-1.476.231-3.607-.154-4.926-.427-1.463-4.308-3.326-5.18-5.496-2.038-5.074,2.241-5.55,4.682-8.457,1.98-2.359,4.551-9.287,6.763-10.203C22.264.383,32.225.866,39.349.483c14.545-.782,43.913-2.143,54.017,10.02,2.175,2.618,4.092,8.689,5.517,9.878ZM86.57,30.179c-.289-.417-4.929-3.523-5.759-3.977-8.753-4.785-29.061-7.101-38.784-4.818-5.238,1.23-2.968,2.171-4.408,3.444-.56.494-3.791.461-4.806.851l-3.847,27.885-1.263,25.436c.456.518,7.64-3.823,9.113-3.745,1.137.061,2.496,1.852,4.705.611l-.625,2.504c1.316.031,2.622.108,3.933-.146,5.928-1.146,15.683-4.839,20.292-7.968,4.069-2.762,19.562-18.212,21.137-22.23,1.593-4.065,2.815-14.237.311-17.849Z"/>
  <path d="M325.505,5.091c.398.437.435,1.317.927,1.893.924,1.082,2.917,1.548,4.096,2.551,2.407,2.048,3.678,5.406,2.541,8.441l-1.309-.056,1.699,1.382c-2.435-.705-4.871.885-7.279,1.056-8.973.638-11.962-2.424-21.649,1.318-13.884,5.363-27.684,14.812-34.645,28.366-.913,1.777-2.548,5.206-1.302,6.877,2.88,3.862,27.095,6.484,32.989,7.897,4.342,1.041,8.717,3.312,12.834,4.174,10.971,2.297,19.533,1.62,28.951,9.534,11.185,9.398,3.2,33.147-2.828,43.921-9.479,16.942-33.044,33.795-50.951,40.927-1.434.571-5.585,2.422-6.99,2.505-.691.041-1.272-.441-1.933-.502l.839.9c-.656.535-9.578.194-11.195.027s-2.995-1.034-4.793-1.086c-6.881-.199-18.982,2.609-25.241-.668-.581-.304-.595-1.235-1.114-1.608-.719-.516-1.515-.371-2.517-1.366-1.705-1.693-.952-3.241-1.161-3.608-.36-.631-2.246-.227-.126-2.599-1.455-.044-1.586-1.734-1.153-2.847.39-1.003,2.228-.722,2.539-1.148.279-.383-.064-1.466.563-1.895.463-.317,1.839-.123,2.599-.395,8.371-3.002,9.528-.788,17.47-.8,23.936-.035,49.741-14.342,55.515-38.732,1.519-6.415,3.11-15.331-2.542-19.929-3.392-2.76-4.628-2.973-8.995-2.978-16.225-.021-29.938,3.06-44.251-7.613-7.193-5.364-12.142-18.802-11.766-27.611.131-3.061,3.632-7.527,5.089-10.48,7.66-15.524,11.98-22.59,28.33-30.149,6.568-3.037,19.223-7.94,26.281-9.555,5.697-1.304,16.346-.681,20.479,3.857Z"/>
  <path d="M119.868,151.025c-1.108-.516-1.661-1.143-1.661-1.886,0-1.771,1.623-3.025,4.874-3.762,6.055-1.18,10.559-2.956,13.515-5.317,2.953-2.361,4.432-5.907,4.432-10.639V26.62c0-3.541-.371-6.165-1.108-7.862-.742-1.697-1.96-2.914-3.656-3.657-1.701-.738-4.619-1.475-8.751-2.218-4.874-.885-7.311-2.361-7.311-4.426,0-1.628,2.139-2.44,6.425-2.44,4.43,0,9.007.148,13.736.443l11.078.221,13.293-.221c5.612-.295,10.486-.443,14.623-.443,4.283,0,6.425.811,6.425,2.44,0,2.066-2.437,3.541-7.311,4.426-6.944,1.333-11.963,2.735-15.065,4.21-3.102,1.481-4.653,4.136-4.653,7.978v104.35c0,4.874,1.108,8.347,3.324,10.418,2.216,2.066,6.792,3.098,13.736,3.098h27.473c3.69,0,7.09-.59,10.191-1.771,3.102-1.18,5.463-2.514,7.09-3.989,2.952-2.508,5.13-4.764,6.535-6.755,1.403-1.997,3.064-4.985,4.985-8.974.589-1.475,1.331-2.956,2.216-4.432.887-1.475,1.773-2.218,2.658-2.218s1.552.411,1.994,1.223.665,1.734.665,2.766l-.223,1.107c-1.921,7.093-3.288,12.52-4.098,16.288-.813,3.768-1.44,7.72-1.882,11.851-.298,2.514-1.331,3.768-3.102,3.768-15.807,0-30.353-.221-43.646-.664-15.065-.3-25.849-.443-32.346-.443-4.58,0-10.192.142-16.838.443-6.647.295-11.005.516-13.072.664-1.921,0-3.434-.258-4.542-.775Z" fill="#010101"/>
  <path d="M378.698,148.451c-6.349-2.975-11.291-7.029-14.824-12.177-3.537-5.137-5.303-11.002-5.303-17.594,0-12.051,3.574-22.255,10.726-30.614,7.149-8.353,16.994-15.427,29.528-21.212l4.821-2.167-3.616-3.858c-.805-.963-2.651-2.93-5.544-5.905-2.892-2.97-5.303-6.346-7.231-10.124-1.929-3.772-2.894-7.831-2.894-12.171,0-5.464,1.605-10.285,4.821-14.464,3.213-4.179,7.39-7.43,12.534-9.763,5.141-2.328,10.524-3.491,16.151-3.491,6.425,0,11.969,1.525,16.631,4.575,4.659,3.056,8.154,6.834,10.486,11.334,2.328,4.5,3.496,9.001,3.496,13.495.158,11.73-8.278,20.73-25.31,26.996l-3.375,1.204,3.133,3.377c2.087,2.408,4.016,4.46,5.786,6.146,1.766,1.685,3.292,3.256,4.579,4.701,4.659,4.661,8.558,8.76,11.691,12.291,3.133,3.537,6.226,7.476,9.28,11.816l2.892,4.334,4.34-4.575c5.785-6.272,11.648-13.421,17.596-21.453,5.944-8.038,8.919-12.934,8.919-14.705,0-1.124-.645-2.448-1.929-3.979-1.288-1.525-2.892-2.448-4.82-2.775-.483-.155-1.085-.556-1.809-1.204-.722-.636-1.085-1.124-1.085-1.445,0-.963.603-1.645,1.809-2.047s2.369-.608,3.494-.608l5.303.487c8.197.482,12.132.722,11.811.722,2.73,0,6.991-.642,12.776-1.932,4.498-1.118,7.954-1.685,10.365-1.685.482,0,1.085.241,1.807.722.724.482,1.085.963,1.085,1.445,0,.969-.724,1.932-2.17,2.895s-2.735,1.531-3.857,1.685c-6.59.482-12.455,2.975-17.596,7.476-1.288,1.124-7.755,7.831-19.405,20.123-11.652,12.297-19.565,20.696-23.743,25.191l4.099,5.785c5.623,8.038,10.884,14.103,15.787,18.202,4.9,4.099,10.245,6.146,16.031,6.146,7.55,0,13.818-1.445,18.801-4.34,1.284-.803,2.651-1.204,4.098-1.204,1.122,0,1.886.201,2.29.602.398.401.602,1.17.602,2.287,0,1.45-1.728,3.463-5.183,6.031-3.457,2.568-7.593,4.862-12.413,6.868-4.821,2.007-9.322,3.01-13.498,3.01-5.948,0-10.888-.963-14.825-2.889-3.939-1.926-7.471-4.741-10.606-8.439-3.133-3.692-7.031-9.236-11.69-16.631l-3.134-5.062-1.446,1.445-5.062,5.55c-5.465,6.106-10.086,10.847-13.859,14.218-3.778,3.377-8.075,6.192-12.896,8.439-4.821,2.247-10.365,3.371-16.631,3.371-8.197,0-15.469-1.485-21.815-4.455ZM427.029,132.422c5.942-3.216,12.052-8.118,18.318-14.705l2.17-2.173-2.892-4.575c-2.573-4.019-5.706-8.118-9.401-12.297-3.699-4.174-8.357-9.161-13.981-14.946l-11.088-11.81-2.892-3.13-5.062,1.926c-10.124,3.858-16.836,9.242-20.127,16.15-3.296,6.908-4.942,14.866-4.942,23.861,0,7.556,2.772,13.862,8.316,18.924,5.544,5.062,12.656,7.59,21.332,7.59,7.552,0,14.301-1.599,20.249-4.816ZM419.797,57.211c4.176-1.926,7.431-5.137,9.762-9.637,2.328-4.5,3.496-9.322,3.496-14.464,0-5.945-1.409-11.088-4.218-15.427-2.813-4.34-6.87-6.507-12.173-6.507-4.821,0-9.081,1.485-12.776,4.46-3.698,2.975-5.544,6.627-5.544,10.967,0,4.982.881,9.276,2.651,12.893,1.766,3.617,5.701,8.64,11.811,15.066l3.857,4.099,3.133-1.45Z" fill="#010101"/>
</svg>